<?xml version="1.0" standalone="no"?>
<!DOCTYPE svg PUBLIC "-//W3C//DTD SVG 1.1//EN" "http://www.w3.org/Graphics/SVG/1.1/DTD/svg11.dtd" >
<svg xmlns="http://www.w3.org/2000/svg">
<metadata></metadata>
<defs>
<font id="futurabookcregular" horiz-adv-x="1163" >
<font-face units-per-em="2048" ascent="1536" descent="-512" />
<missing-glyph horiz-adv-x="477" />
<glyph unicode=" "  horiz-adv-x="477" />
<glyph unicode="&#x09;" horiz-adv-x="477" />
<glyph unicode="&#xa0;" horiz-adv-x="477" />
<glyph unicode="!" horiz-adv-x="573" d="M184 82q0 41 31 71.5t72 30.5t71.5 -30.5t30.5 -71.5t-30.5 -71.5t-71.5 -30.5t-72 30.5t-31 71.5zM213 276v1090h147v-1090h-147z" />
<glyph unicode="&#x22;" horiz-adv-x="675" d="M111 1366h163l-26 -549h-111zM401 1366h164l-26 -549h-111z" />
<glyph unicode="#" horiz-adv-x="1228" d="M70 424l20 135h225l41 272h-225l21 136h225l61 399h150l-62 -399h279l61 399h150l-62 -399h226l-21 -136h-225l-41 -272h225l-20 -135h-226l-65 -424h-150l66 424h-279l-65 -424h-150l66 424h-225zM465 559h278l41 272h-278z" />
<glyph unicode="$" d="M158 328l147 41q15 -107 82 -174q69 -72 160 -76v561q-151 63 -225 133q-52 49 -73.5 102t-21.5 121q0 143 92 239.5t228 108.5v179h123v-179q87 -9 155 -57q82 -57 131 -151l-120 -80q-29 60 -78 102q-39 34 -88 43v-455q162 -63 239 -143q97 -100 97 -248 q0 -94 -37.5 -180t-115.5 -150t-183 -81v-191h-123v182q-153 5 -262 111q-46 46 -79.5 111.5t-47.5 130.5zM379 1038q0 -72 51 -123q45 -45 117 -73v399q-80 -13 -124 -70t-44 -133zM670 127q83 22 131.5 98t48.5 164q0 96 -66 162q-45 45 -114 72v-496z" />
<glyph unicode="%" horiz-adv-x="1454" d="M68 1081q0 125 86 211t211 86t211 -86t86 -211t-86 -211t-211 -86t-211 86t-86 211zM190 1081q0 -76 51.5 -130t123.5 -54q74 0 124 54t50 130t-50 130.5t-124 54.5q-72 0 -123.5 -54.5t-51.5 -130.5zM289 20l796 1373l80 -45l-796 -1375zM793 283q0 125 86.5 211 t210.5 86t210 -86t86 -211t-86 -211t-210 -86t-210.5 86t-86.5 211zM915 283q0 -76 51.5 -130.5t123.5 -54.5q74 0 124 54.5t50 130.5t-50 130t-124 54q-72 0 -123.5 -54t-51.5 -130z" />
<glyph unicode="&#x26;" horiz-adv-x="1302" d="M111 354q0 161 122 283q72 72 230 170q-72 93 -103.5 159.5t-31.5 133.5q0 116 79 202.5t218 86.5q135 0 211.5 -82t76.5 -193q0 -138 -127 -248q-14 -12 -37.5 -29.5t-72.5 -58.5l285 -366q100 106 155 180l111 -92q-70 -97 -174 -203l229 -297h-188l-148 190 q-95 -95 -211.5 -155t-228.5 -60q-168 0 -281.5 108.5t-113.5 270.5zM262 356q0 -102 68.5 -171.5t173.5 -69.5q154 0 350 188l-303 391q-112 -68 -193 -141q-26 -24 -43.5 -44t-35 -62t-17.5 -91zM471 1108q0 -28 9 -54.5t18.5 -41.5t27.5 -39l62 -84l90 69q92 72 92 158 q0 68 -44 104.5t-103 36.5q-64 0 -108 -42.5t-44 -106.5z" />
<glyph unicode="'" horiz-adv-x="385" d="M111 1366h163l-26 -549h-111z" />
<glyph unicode="(" horiz-adv-x="602" d="M164 567q0 343 78 629q49 171 100 307l129 -59q-69 -184 -94 -305q-62 -248 -62 -572q0 -323 62 -571q25 -121 94 -305l-129 -60q-50 133 -100 308q-78 286 -78 628z" />
<glyph unicode=")" horiz-adv-x="602" d="M131 -309q69 184 94 305q62 248 62 571q0 324 -62 572q-25 121 -94 305l129 59q51 -136 100 -307q78 -286 78 -629q0 -342 -78 -628q-50 -175 -100 -308z" />
<glyph unicode="*" d="M242 1198l43 129l237 -88l-10 254h139l-10 -254l238 88l43 -129l-246 -70l158 -198l-111 -80l-141 211l-142 -211l-110 80l157 198z" />
<glyph unicode="+" horiz-adv-x="1024" d="M68 614v136h370v352h148v-352h370v-136h-370v-352h-148v352h-370z" />
<glyph unicode="," horiz-adv-x="561" d="M49 -272l168 473l135 -49l-207 -463z" />
<glyph unicode="-" horiz-adv-x="614" d="M82 360v152h450v-152h-450z" />
<glyph unicode="." horiz-adv-x="466" d="M131 82q0 41 30.5 71.5t71.5 30.5t72 -30.5t31 -71.5t-31 -71.5t-72 -30.5t-71.5 30.5t-30.5 71.5z" />
<glyph unicode="/" horiz-adv-x="1187" d="M0 -311l1028 1847l119 -61l-1028 -1844z" />
<glyph unicode="0" d="M94 682q0 303 137 502q73 106 166.5 155.5t184.5 49.5t184 -49.5t166 -155.5q137 -199 137 -502t-137 -502q-73 -106 -166 -155.5t-184 -49.5t-184.5 49.5t-166.5 155.5q-137 199 -137 502zM246 682q0 -258 100 -416q50 -80 113 -115.5t123 -35.5t122.5 35.5t112.5 115.5 q101 160 101 416t-101 416q-50 80 -112.5 115.5t-122.5 35.5t-123 -35.5t-113 -115.5q-100 -158 -100 -416z" />
<glyph unicode="1" d="M315 1223l80 143h301v-1366h-151v1223h-230z" />
<glyph unicode="2" d="M102 0l498 575q123 144 160 199q76 110 76 209q0 116 -76 191t-197 75q-148 0 -227 -121q-42 -64 -45 -161h-152q8 172 103 282q121 140 323 140q182 0 302 -115.5t120 -292.5q0 -72 -24 -140t-84 -153q-50 -70 -187 -227l-284 -322h577v-139h-883z" />
<glyph unicode="3" d="M131 354h152q10 -84 49 -137q33 -49 89 -75.5t122 -26.5q113 0 190.5 80.5t77.5 195.5q0 69 -32 133.5t-103 96.5q-67 31 -156 28v135q89 -7 156 29q115 62 115 203q0 100 -58 166.5t-176 66.5q-115 0 -176 -78q-47 -61 -53 -143h-152q6 109 64 201q102 160 317 160 q93 0 168 -31t121.5 -83.5t71 -117.5t24.5 -137q0 -88 -40.5 -171.5t-135.5 -131.5q19 -7 39 -18t50 -38t52.5 -61t39 -90t16.5 -123q0 -187 -120 -299.5t-300 -112.5q-76 0 -145.5 21t-135 76.5t-100.5 138.5q-28 69 -31 143z" />
<glyph unicode="4" d="M41 223l852 1219v-1080h168v-139h-168v-223h-152v223h-700zM309 362h432v617z" />
<glyph unicode="5" d="M70 221l120 86q31 -60 93 -110q99 -82 221 -82q143 0 239.5 102t96.5 248q0 147 -94.5 241.5t-241.5 94.5q-130 0 -264 -94l198 659h543v-139h-438l-88 -295q36 8 86 8q202 0 326 -135t124 -338q0 -148 -68.5 -261.5t-181 -172t-247.5 -58.5q-176 0 -306 107 q-72 62 -118 139z" />
<glyph unicode="6" d="M111 440q0 157 112 314l465 645l115 -86l-314 -436q58 18 121 18q194 0 318.5 -129t124.5 -322q0 -204 -132.5 -336.5t-336.5 -132.5q-116 0 -209 42t-149 110.5t-85.5 149t-29.5 163.5zM262 440q0 -138 89.5 -231.5t230.5 -93.5q140 0 229.5 93t89.5 232 q0 137 -91 226.5t-230 89.5q-138 0 -228 -90.5t-90 -225.5z" />
<glyph unicode="7" d="M106 47l777 1180h-748v139h1004l-914 -1399z" />
<glyph unicode="8" d="M164 377q0 113 52.5 201t154.5 133q-81 47 -123.5 125t-42.5 174q0 74 25 141.5t71 121t119 85t162 31.5q118 0 205.5 -55t129 -139.5t41.5 -184.5q0 -97 -42 -174.5t-123 -124.5q102 -45 154 -132.5t52 -201.5q0 -81 -26.5 -153t-77 -128t-131.5 -88.5t-182 -32.5 q-199 0 -308.5 116t-109.5 286zM315 381q0 -117 74.5 -191.5t192.5 -74.5t192 74.5t74 191.5q0 115 -74.5 187.5t-191.5 72.5t-192 -72.5t-75 -187.5zM348 1008q0 -101 67 -168.5t167 -67.5t166.5 67.5t66.5 168.5q0 109 -68 175t-165 66t-165.5 -66t-68.5 -175z" />
<glyph unicode="9" d="M111 920q0 204 132.5 336.5t336.5 132.5q116 0 209 -42t149 -110.5t85.5 -149t29.5 -163.5q0 -158 -113 -314l-465 -643l-115 84l314 436q-59 -18 -121 -18q-194 0 -318 129t-124 322zM262 924q0 -137 91.5 -226.5t230.5 -89.5q138 0 227.5 90.5t89.5 225.5 q0 139 -89 232t-230 93q-140 0 -230 -93t-90 -232z" />
<glyph unicode=":" horiz-adv-x="466" d="M131 82q0 41 30.5 71.5t71.5 30.5t72 -30.5t31 -71.5t-31 -71.5t-72 -30.5t-71.5 30.5t-30.5 71.5zM131 768q0 41 30.5 71.5t71.5 30.5t72 -30.5t31 -71.5t-31 -71.5t-72 -30.5t-71.5 30.5t-30.5 71.5z" />
<glyph unicode=";" horiz-adv-x="561" d="M49 -272l168 473l135 -49l-207 -463zM160 768q0 41 30.5 71.5t71.5 30.5t72 -30.5t31 -71.5t-31 -71.5t-72 -30.5t-71.5 30.5t-30.5 71.5z" />
<glyph unicode="&#x3c;" horiz-adv-x="1024" d="M68 612v127l888 416v-147l-731 -332l731 -332v-147z" />
<glyph unicode="=" horiz-adv-x="1024" d="M68 471v135h888v-135h-888zM68 786v136h888v-136h-888z" />
<glyph unicode="&#x3e;" horiz-adv-x="1024" d="M68 197v147l731 332l-731 332v147l888 -416v-127z" />
<glyph unicode="?" horiz-adv-x="892" d="M117 1071q0 147 91.5 229t235.5 82q85 0 151 -28t104 -75.5t57.5 -103.5t19.5 -118q0 -28 -4 -55.5t-18 -66t-37 -70.5t-66.5 -63.5t-101.5 -51.5q-16 -5 -52 -16t-61 -20.5t-51 -23.5q-84 -41 -84 -133q0 -65 40.5 -105t102.5 -40q80 0 119 61q29 51 29 113h147 q2 -49 -10.5 -101.5t-36.5 -87.5q-37 -56 -103.5 -90.5t-142.5 -34.5q-130 0 -213 84t-83 211q0 56 15.5 100t43 72.5t53 45t57.5 30.5q39 17 89.5 33t85.5 29q28 11 47 22.5t40.5 32t32.5 51.5t11 72q0 90 -48 139t-133 49q-11 0 -25.5 -1.5t-44 -12t-52 -28.5t-40.5 -56 t-18 -90q0 -35 12 -78h-151q-8 44 -8 94zM344 82q0 41 30.5 71.5t71.5 30.5t72 -30.5t31 -71.5t-31 -71.5t-72 -30.5t-71.5 30.5t-30.5 71.5z" />
<glyph unicode="@" horiz-adv-x="1501" d="M68 678q0 146 55.5 276.5t149.5 225t226 149.5t279 55q104 0 201 -27.5t177.5 -80.5t141 -126t94 -168.5t33.5 -203.5q0 -205 -102.5 -344t-230.5 -139q-63 0 -104 37.5t-46 99.5q-11 -17 -27 -36t-47.5 -46.5t-79.5 -45t-102 -17.5q-129 0 -208 94.5t-79 234.5 q0 110 44.5 204.5t128 153t186.5 58.5q88 0 144.5 -44.5t80.5 -113.5l27 132h106q-37 -158 -64 -310.5t-32 -199.5v-17q6 -94 76 -94q81 0 156 110.5t75 280.5q0 150 -74.5 268t-198.5 180t-274 62q-167 0 -307 -81t-220.5 -221.5t-80.5 -307.5q0 -82 19.5 -162.5 t66.5 -161.5t116.5 -142t179 -99.5t245.5 -38.5q227 0 428 94l30 -94q-205 -99 -460 -99q-210 0 -376 89t-259.5 250t-93.5 366zM518 621q0 -105 57 -164.5t134 -59.5q70 0 124.5 47t82.5 121t28 158q0 100 -51 149.5t-125 49.5q-105 0 -177.5 -91t-72.5 -210z" />
<glyph unicode="A" horiz-adv-x="1273" d="M16 0l629 1432l612 -1432h-167l-160 385h-582l-164 -385h-168zM408 528h462l-229 547z" />
<glyph unicode="B" horiz-adv-x="1085" d="M176 0v1366h246q206 0 313 -86q47 -36 85 -105t38 -178q0 -177 -135 -268q68 -17 120 -54.5t81.5 -86.5t44 -100t14.5 -103q0 -93 -39.5 -171t-99.5 -124q-39 -31 -82 -50.5t-89.5 -27t-79 -10t-77.5 -2.5h-340zM328 143h174q79 0 136.5 11.5t102.5 46.5q41 30 65.5 79 t24.5 109q0 74 -34 124.5t-82 76.5q-72 41 -232 41h-155v-488zM328 766h114q31 0 59.5 3t69 16.5t69.5 36t50 67t21 104.5q0 46 -13 83.5t-32 61t-46.5 40.5t-51 25.5t-51.5 13t-42.5 5.5t-28.5 1h-118v-457z" />
<glyph unicode="C" horiz-adv-x="1323" d="M102 678q0 151 54.5 283t149 226t227.5 148t284 54q226 0 404 -136v-188q-81 81 -179 127q-116 53 -235 53q-154 0 -280.5 -76t-197.5 -206.5t-71 -286.5q0 -107 33.5 -199.5t88.5 -157t127 -110.5t149 -68t153 -22q131 0 254 63q86 43 158 115v-188q-187 -134 -412 -134 q-200 0 -362 93t-253.5 254t-91.5 356z" />
<glyph unicode="D" horiz-adv-x="1294" d="M176 0v1366h279q62 0 114.5 -5t121.5 -20t137.5 -49t129.5 -86q104 -86 169 -218.5t65 -305.5q0 -318 -240 -524q-98 -83 -210 -120.5t-289 -37.5h-277zM328 143h133q244 0 391 123q184 155 184 416q0 246 -157.5 393.5t-417.5 147.5h-133v-1080z" />
<glyph unicode="E" horiz-adv-x="987" d="M176 0v1366h709v-143h-557v-406h540v-143h-540v-531h557v-143h-709z" />
<glyph unicode="F" horiz-adv-x="888" d="M176 0v1366h623v-143h-471v-404h454v-143h-454v-676h-152z" />
<glyph unicode="G" horiz-adv-x="1552" d="M102 682q0 196 92.5 358t256 255.5t364.5 93.5q241 0 418 -136q91 -70 158 -161l-113 -103q-59 84 -129 141q-143 115 -332 115q-162 0 -290.5 -75t-198.5 -203.5t-70 -286.5q0 -108 33 -201t88 -158t127 -111.5t150 -68.5t157 -22q135 0 247 62.5t171 166.5 q50 86 55 195h-405v143h569v-33q0 -117 -34 -231.5t-97 -200.5q-18 -25 -38.5 -47.5t-68 -62t-99.5 -67t-132.5 -48.5t-169.5 -21q-200 0 -362.5 93.5t-254.5 255.5t-92 358z" />
<glyph unicode="H" horiz-adv-x="1355" d="M176 0v1366h152v-555h700v555h152v-1366h-152v668h-700v-668h-152z" />
<glyph unicode="I" horiz-adv-x="503" d="M176 0v1366h152v-1366h-152z" />
<glyph unicode="J" horiz-adv-x="626" d="M-94 -41l84 119q41 -38 76.5 -57t80.5 -19q76 0 111 51q41 50 41 209v1104h152v-1104q0 -129 -26 -214.5t-108 -139.5q-74 -49 -167 -49q-130 0 -244 100z" />
<glyph unicode="K" d="M176 0v1366h152v-586l581 586h205l-639 -637l660 -729h-209l-559 627l-39 -39v-588h-152z" />
<glyph unicode="L" horiz-adv-x="733" d="M176 0v1366h152v-1223h377v-143h-529z" />
<glyph unicode="M" horiz-adv-x="1767" d="M129 0l227 1442l525 -1153l534 1155l213 -1444h-155l-130 950l-464 -1007l-459 1007l-135 -950h-156z" />
<glyph unicode="N" horiz-adv-x="1568" d="M176 0v1423l1065 -1116v1059h152v-1427l-1065 1116v-1055h-152z" />
<glyph unicode="O" horiz-adv-x="1626" d="M102 682q0 150 56 282t151.5 225t226.5 146.5t277 53.5t277 -53.5t226.5 -146.5t151.5 -225t56 -282q0 -149 -56 -281t-151 -225t-226.5 -147t-277.5 -54t-277.5 54t-226.5 147t-151 225t-56 281zM258 682q0 -154 74 -283.5t202 -204.5t279 -75t279 75t202 204.5 t74 283.5t-74 283.5t-202 204.5t-279 75t-279 -75t-202 -204.5t-74 -283.5z" />
<glyph unicode="P" horiz-adv-x="933" d="M176 0v1366h248q115 0 197.5 -20t146.5 -76q125 -108 125 -293q0 -60 -14.5 -114t-48 -104t-82.5 -86t-123 -57.5t-164 -21.5h-133v-594h-152zM328 737h125q136 0 212 65t76 183q0 62 -22.5 108t-54.5 70t-76.5 38.5t-78 18t-69.5 3.5h-112v-486z" />
<glyph unicode="Q" horiz-adv-x="1626" d="M102 682q0 150 56 282t151.5 225t226.5 146.5t277 53.5q145 0 276 -53.5t226.5 -146.5t152 -225t56.5 -282q0 -286 -193 -489l201 -207h-197l-110 114q-183 -125 -412 -125q-146 0 -277 54t-226.5 147t-151.5 225t-56 281zM258 682q0 -154 74 -283.5t202 -204.5t279 -75 q167 0 303 90l-330 340h197l240 -246q145 156 145 379q0 154 -74.5 283.5t-202.5 204.5t-278 75q-151 0 -279 -75t-202 -204.5t-74 -283.5z" />
<glyph unicode="R" horiz-adv-x="1028" d="M176 0v1366h219q221 0 332 -76q65 -43 107.5 -121.5t42.5 -181.5q0 -157 -95 -262t-250 -115l435 -610h-185l-415 598h-39v-598h-152zM328 733h96q142 0 221.5 65.5t79.5 184.5q0 139 -109 201q-68 39 -196 39h-92v-490z" />
<glyph unicode="S" horiz-adv-x="1060" d="M102 328l148 41q14 -103 82 -174q76 -76 196 -76q132 0 203.5 79.5t71.5 190.5q0 98 -68 160q-18 17 -46 34.5t-49.5 28t-68.5 31.5l-122 57q-3 1 -20 9t-23 11l-22 11t-24 13t-22.5 14t-25 16.5t-23 17.5t-23.5 21q-47 45 -70.5 97.5t-23.5 125.5q0 157 108 255t275 98 q125 0 219 -62q83 -56 133 -151l-121 -80q-31 63 -79 102q-63 47 -154 47q-102 0 -165.5 -58t-63.5 -153q0 -39 11.5 -66t39.5 -53q19 -19 46.5 -36.5t43.5 -25t53 -24.5l131 -57q146 -64 211 -129q98 -98 98 -248q0 -187 -122.5 -303.5t-309.5 -116.5q-184 0 -297 111 q-94 91 -127 242z" />
<glyph unicode="T" horiz-adv-x="872" d="M29 1223v143h815v-143h-332v-1223h-152v1223h-331z" />
<glyph unicode="U" horiz-adv-x="1323" d="M176 487v879h152v-838q0 -59 2 -90t11 -81t32.5 -88.5t62.5 -71.5q41 -35 104.5 -56.5t121.5 -21.5t121 21.5t104 56.5q39 33 62.5 71.5t32.5 88.5t11 81t2 90v838h152v-879q0 -100 -17.5 -178.5t-68.5 -148.5q-63 -86 -167 -135.5t-232 -49.5t-232.5 49.5t-167.5 135.5 q-51 70 -68.5 148.5t-17.5 178.5z" />
<glyph unicode="V" horiz-adv-x="1138" d="M16 1366h168l385 -1042l385 1042h168l-553 -1448z" />
<glyph unicode="W" horiz-adv-x="1961" d="M16 1366h168l361 -1024l428 1094l405 -1094l400 1024h168l-574 -1438l-401 1094l-430 -1094z" />
<glyph unicode="X" horiz-adv-x="1032" d="M29 0l403 707l-366 659h172l282 -514l291 514h172l-375 -659l396 -707h-173l-313 561l-317 -561h-172z" />
<glyph unicode="Y" horiz-adv-x="1085" d="M16 1366h177l348 -610l352 610h176l-453 -778v-588h-151v588z" />
<glyph unicode="Z" horiz-adv-x="1097" d="M49 0l746 1223h-650v143h904l-746 -1223h725v-143h-979z" />
<glyph unicode="[" horiz-adv-x="593" d="M164 -360v1853h344v-135h-197v-1583h197v-135h-344z" />
<glyph unicode="\" horiz-adv-x="1187" d="M41 1475l119 61l1028 -1847l-119 -58z" />
<glyph unicode="]" horiz-adv-x="593" d="M86 -225h197v1583h-197v135h344v-1853h-344v135z" />
<glyph unicode="^" horiz-adv-x="1024" d="M53 748l363 618h192l363 -618h-160l-299 505l-299 -505h-160z" />
<glyph unicode="_" horiz-adv-x="1024" d="M0 -139h1024v-131h-1024v131z" />
<glyph unicode="`" horiz-adv-x="1024" d="M233 1294l152 70l215 -297l-90 -49z" />
<glyph unicode="a" horiz-adv-x="1077" d="M86 426q0 106 34 192t92 140.5t131.5 83t156.5 28.5q183 0 291 -141v121h147v-850h-147v119q-112 -144 -291 -144q-82 0 -155.5 29t-132 83.5t-92.5 142t-34 196.5zM238 426q0 -140 74.5 -230t203.5 -90q130 0 206.5 93t76.5 225q0 79 -25.5 141t-67 99t-90.5 56t-100 19 q-116 0 -197 -82.5t-81 -230.5z" />
<glyph unicode="b" horiz-adv-x="1077" d="M139 0v1493h148v-762q111 139 291 139q128 0 224 -65.5t142.5 -166.5t46.5 -218q0 -118 -47 -218.5t-141.5 -163.5t-218.5 -63q-186 0 -297 144v-119h-148zM279 422q0 -134 78.5 -225t205.5 -91q125 0 201 91t76 223q0 148 -84 233.5t-195 85.5t-196.5 -86t-85.5 -231z " />
<glyph unicode="c" horiz-adv-x="897" d="M86 420q0 195 129 322.5t326 127.5q148 0 264 -82v-176q-53 67 -126 97t-140 30q-126 0 -213.5 -84.5t-87.5 -232.5q0 -147 88.5 -231.5t210.5 -84.5q71 0 145 33.5t129 100.5v-177q-119 -88 -270 -88q-198 0 -326.5 126.5t-128.5 318.5z" />
<glyph unicode="d" horiz-adv-x="1077" d="M86 426q0 106 34 192t92 140.5t131.5 83t156.5 28.5q183 0 291 -141v764h147v-1493h-147v119q-112 -144 -291 -144q-82 0 -155.5 29t-132 83.5t-92.5 142t-34 196.5zM238 426q0 -140 74.5 -230t203.5 -90q130 0 206.5 93t76.5 225q0 79 -25.5 141t-67 99t-90.5 56 t-100 19q-116 0 -197 -82.5t-81 -230.5z" />
<glyph unicode="e" horiz-adv-x="985" d="M86 420q0 195 112 322.5t300 127.5q114 0 195 -45t126 -110q39 -56 61 -145q19 -78 19 -154v-21h-661q1 -129 79 -209t191 -80q100 0 174 62q58 49 88 117l123 -68q-43 -81 -105 -137q-117 -105 -282 -105q-80 0 -152.5 26t-133.5 77.5t-97.5 140t-36.5 201.5zM248 518 h500q-19 100 -87.5 160.5t-162.5 60.5q-93 0 -163 -62.5t-87 -158.5z" />
<glyph unicode="f" horiz-adv-x="491" d="M61 715v135h82v367q0 77 15.5 137t66.5 102q64 55 170 55q57 0 105 -18v-143q-47 18 -97 18q-66 0 -94 -45q-18 -31 -18 -123v-350h209v-135h-209v-715h-148v715h-82z" />
<glyph unicode="g" horiz-adv-x="1077" d="M86 426q0 106 34 192t92 140.5t131.5 83t156.5 28.5q183 0 291 -141v121h147v-832q0 -66 -2.5 -106.5t-22 -108t-57.5 -118.5q-51 -70 -139 -114t-201 -44q-188 0 -303 115q-111 111 -111 274h146q0 -104 65 -176q74 -82 205 -82q154 0 225 119q48 78 48 217v125 q-112 -144 -291 -144q-82 0 -155.5 29t-132 83.5t-92.5 142t-34 196.5zM238 426q0 -140 74.5 -230t203.5 -90q130 0 206.5 93t76.5 225q0 79 -25.5 141t-67 99t-90.5 56t-100 19q-116 0 -197 -82.5t-81 -230.5z" />
<glyph unicode="h" horiz-adv-x="962" d="M139 0v1493h148v-741q91 118 243 118q77 0 141.5 -30t102.5 -86q30 -44 39.5 -96t9.5 -132v-526h-147v522q0 106 -39 156q-48 61 -139 61q-95 0 -150 -65q-61 -73 -61 -230v-444h-148z" />
<glyph unicode="i" horiz-adv-x="425" d="M109 1171q0 43 30.5 74t73.5 31t73.5 -31t30.5 -74t-30.5 -73.5t-73.5 -30.5t-73.5 30.5t-30.5 73.5zM139 0v850h148v-850h-148z" />
<glyph unicode="j" horiz-adv-x="425" d="M109 1171q0 43 30.5 74t73.5 31t73.5 -31t30.5 -74t-30.5 -73.5t-73.5 -30.5t-73.5 30.5t-30.5 73.5zM139 -479v1329h148v-1329h-148z" />
<glyph unicode="k" horiz-adv-x="864" d="M139 0v1493h148v-958l311 315h193l-365 -365l430 -485h-192l-340 387l-37 -37v-350h-148z" />
<glyph unicode="l" horiz-adv-x="425" d="M139 0v1493h148v-1493h-148z" />
<glyph unicode="m" horiz-adv-x="1402" d="M139 0v850h148v-90q74 110 211 110q157 0 233 -137q87 137 256 137q277 0 277 -331v-539h-148v516q0 44 -4.5 76.5t-18.5 69.5t-46.5 57t-81.5 20q-189 0 -189 -266v-473h-147v504q0 235 -156 235q-186 0 -186 -276v-463h-148z" />
<glyph unicode="n" horiz-adv-x="962" d="M139 0v850h148v-98q91 118 243 118q77 0 141.5 -30t102.5 -86q30 -44 39.5 -96t9.5 -132v-526h-147v522q0 106 -39 156q-48 61 -139 61q-95 0 -150 -65q-61 -73 -61 -230v-444h-148z" />
<glyph unicode="o" horiz-adv-x="1073" d="M86 422q0 194 128 321t323 127t322.5 -127t127.5 -321q0 -193 -128 -320t-322 -127t-322.5 127t-128.5 320zM238 422q0 -100 43.5 -173.5t110.5 -108t145 -34.5q123 0 211 84t88 232q0 149 -87 233t-212 84q-124 0 -211.5 -84.5t-87.5 -232.5z" />
<glyph unicode="p" horiz-adv-x="1077" d="M139 -479v1329h148v-119q111 139 291 139q128 0 224 -65.5t142.5 -166.5t46.5 -218q0 -118 -47 -218.5t-141.5 -163.5t-218.5 -63q-186 0 -297 144v-598h-148zM279 422q0 -134 78.5 -225t205.5 -91q125 0 201 91t76 223q0 148 -84 233.5t-195 85.5t-196.5 -86t-85.5 -231 z" />
<glyph unicode="q" horiz-adv-x="1077" d="M86 426q0 106 34 192t92 140.5t131.5 83t156.5 28.5q183 0 291 -141v121h147v-1329h-147v598q-112 -144 -291 -144q-82 0 -155.5 29t-132 83.5t-92.5 142t-34 196.5zM238 426q0 -140 74.5 -230t203.5 -90q130 0 206.5 93t76.5 225q0 79 -25.5 141t-67 99t-90.5 56 t-100 19q-116 0 -197 -82.5t-81 -230.5z" />
<glyph unicode="r" horiz-adv-x="606" d="M139 0v850h148v-92q8 13 20.5 28t36.5 36t59.5 34.5t75.5 13.5q61 0 131 -34l-69 -134q-42 29 -86 29q-77 0 -119 -53q-49 -65 -49 -229v-449h-148z" />
<glyph unicode="s" horiz-adv-x="720" d="M74 193l127 53q7 -21 19 -41.5t32.5 -44.5t52 -39t68.5 -15q67 0 103 41.5t36 94.5q0 29 -9 50t-31 38t-40.5 26.5t-56.5 26.5q-86 38 -133 65t-74 60q-39 48 -39 125q0 110 69 173.5t179 63.5q161 0 233 -153l-121 -64q-16 38 -47 62t-71 24q-43 0 -73 -24.5t-30 -71.5 q0 -42 28 -64t110 -57q160 -66 212 -131q46 -56 46 -137q0 -130 -83 -204.5t-210 -74.5q-18 0 -38 2t-60.5 14t-74 33t-69 65t-55.5 104z" />
<glyph unicode="t" horiz-adv-x="438" d="M53 715v135h90v307h148v-307h147v-135h-147v-715h-148v715h-90z" />
<glyph unicode="u" horiz-adv-x="954" d="M139 338v512h148v-496q0 -41 1.5 -64t11 -58t28.5 -60q52 -66 149 -66q98 0 150 66q19 25 28.5 60t11 58t1.5 64v496h147v-512q0 -88 -15.5 -146.5t-62.5 -109.5q-102 -107 -260 -107t-260 107q-47 51 -62.5 109.5t-15.5 146.5z" />
<glyph unicode="v" horiz-adv-x="868" d="M16 850h164l254 -574l254 574h164l-418 -905z" />
<glyph unicode="w" horiz-adv-x="1396" d="M16 850h164l252 -578l266 643l265 -643l254 578h163l-422 -909l-262 634l-262 -634z" />
<glyph unicode="x" horiz-adv-x="929" d="M16 0l363 455l-309 395h180l219 -289l223 289h180l-311 -397l352 -453h-180l-268 346l-268 -346h-181z" />
<glyph unicode="y" horiz-adv-x="942" d="M16 850h168l301 -608l277 608h164l-629 -1329h-164l275 559z" />
<glyph unicode="z" horiz-adv-x="942" d="M16 0l615 715h-496v135h791l-615 -715h590v-135h-885z" />
<glyph unicode="{" horiz-adv-x="1026" d="M299 446v119q56 4 90 58q27 47 27 125v362q0 77 19 138t79 100q61 41 191 41h55v-125h-31q-88 0 -127 -37q-18 -17 -27 -44.5t-10.5 -46t-1.5 -51.5v-348q0 -97 -26 -145q-31 -55 -99 -86q68 -31 99 -86q26 -48 26 -146v-348q0 -32 1.5 -51t10.5 -46t27 -44 q39 -37 127 -37h31v-125h-55q-130 0 -191 41q-60 39 -79 100t-19 138v362q0 78 -27 125q-33 53 -90 57z" />
<glyph unicode="|" horiz-adv-x="1024" d="M438 -512v2048h148v-2048h-148z" />
<glyph unicode="}" horiz-adv-x="1026" d="M266 -252h31q88 0 127 37q18 17 27 44t10.5 46t1.5 51v348q0 98 26 146q31 55 99 86q-68 31 -99 86q-26 48 -26 145v348q0 33 -1.5 51.5t-10.5 46t-27 44.5q-39 37 -127 37h-31v125h56q129 0 190 -41q60 -39 79 -100t19 -138v-362q0 -78 27 -125q34 -54 90 -58v-119 q-57 -4 -90 -57q-27 -47 -27 -125v-362q0 -77 -19 -138t-79 -100q-61 -41 -190 -41h-56v125z" />
<glyph unicode="~" horiz-adv-x="1368" d="M193 1247q50 106 98 160q69 78 178 78q52 0 104 -17t127 -53q108 -52 155 -61q21 -4 40 -4q76 0 125 49q39 36 65 90l91 -53q-41 -91 -103 -150q-80 -80 -196 -80q-17 0 -33 1.5t-34.5 7t-30 8.5t-33 12t-29 12t-32.5 15t-30 14q-79 37 -118 51t-76 14q-60 0 -107 -41 q-40 -35 -71 -106z" />
<glyph unicode="&#xa4;" horiz-adv-x="1368" d="M111 1221l82 82l194 -193q121 104 297 104t297 -104l195 193l81 -82l-194 -195q104 -121 104 -291t-104 -291l192 -192l-81 -82l-193 190q-121 -104 -297 -104t-297 104l-192 -190l-82 82l192 192q-104 121 -104 291t104 291zM340 735q0 -152 98 -250t246 -98t246 98 t98 250t-98 250t-246 98t-246 -98t-98 -250z" />
<glyph unicode="&#xa6;" horiz-adv-x="1024" d="M438 225h148v-737h-148v737zM438 799v737h148v-737h-148z" />
<glyph unicode="&#xa7;" d="M207 569q0 64 17.5 118t40.5 87t55.5 60t52.5 38t41 19q-172 90 -172 278q0 90 38 165.5t121 125t199 49.5q69 0 125.5 -18.5t93 -49.5t59 -62t37.5 -66q38 -87 35 -191h-147q3 87 -35 158q-51 94 -166 94q-97 0 -155 -60.5t-58 -148.5q0 -50 20.5 -88.5t60 -64.5 t71.5 -40.5t80 -31.5q6 -2 10 -3.5t8 -2.5q150 -54 209 -105q108 -93 108 -254q0 -108 -55 -191t-151 -128q17 -8 34.5 -18t44 -33.5t46.5 -52t34.5 -75t14.5 -100.5q0 -53 -12.5 -102t-40.5 -95t-69 -80t-102 -54.5t-135 -20.5q-124 0 -206 56t-117 145q-32 82 -29 178h147 q0 -95 39 -156q56 -88 168 -88q96 0 150.5 57t54.5 154q0 48 -14.5 84t-43 61t-55.5 39.5t-67 30.5q-9 3 -51 18.5t-62.5 24t-56 24.5t-63 34t-50.5 39q-102 92 -102 243zM358 573q0 -95 64.5 -159t159.5 -64t159 64t64 159t-64 159.5t-159 64.5t-159.5 -64.5t-64.5 -159.5z " />
<glyph unicode="&#xa9;" horiz-adv-x="1515" d="M51 682q0 193 96 356t258.5 257t352.5 94q142 0 272.5 -55.5t225.5 -150t151.5 -225.5t56.5 -276q0 -143 -56.5 -273.5t-151 -225t-225 -150.5t-273.5 -56q-190 0 -353 94.5t-258.5 257t-95.5 353.5zM166 682q0 -160 79 -296t215.5 -215t297.5 -79t297.5 79t215.5 215 t79 296q0 161 -79 297.5t-215.5 215.5t-297.5 79t-297.5 -79t-215.5 -215.5t-79 -297.5zM379 672q0 181 122 302.5t304 121.5q140 0 248 -78v-164q-50 61 -119 90t-131 29q-117 0 -200 -80.5t-83 -218.5q0 -139 84 -217t197 -78q76 0 143.5 34t114.5 91v-166 q-112 -82 -254 -82q-185 0 -305.5 117t-120.5 299z" />
<glyph unicode="&#xab;" horiz-adv-x="880" d="M74 434l307 385l94 -76l-246 -309l246 -299l-94 -74zM377 434l307 385l94 -76l-246 -309l246 -299l-94 -74z" />
<glyph unicode="&#xac;" horiz-adv-x="1024" d="M68 416v131h888v-547h-143v416h-745z" />
<glyph unicode="&#xad;" horiz-adv-x="614" d="M82 360v152h450v-152h-450z" />
<glyph unicode="&#xae;" horiz-adv-x="1540" d="M68 680q0 198 91.5 358.5t252 252t358.5 91.5q148 0 278.5 -53.5t223.5 -146.5t147 -223.5t54 -278.5t-54 -278.5t-147 -223.5t-223.5 -147t-278.5 -54t-278.5 54t-223.5 147t-146.5 223.5t-53.5 278.5zM182 680q0 -166 76.5 -300.5t211 -211t300.5 -76.5t300.5 76.5 t211 211t76.5 300.5t-76.5 300.5t-211 211t-300.5 76.5t-300.5 -76.5t-211 -211t-76.5 -300.5zM555 297v766h139q20 0 36 -0.5t48.5 -5t57.5 -12t55.5 -24t50.5 -39t33.5 -58t13.5 -80.5q0 -87 -55 -145.5t-143 -67.5l264 -334h-140l-249 324v-324h-111zM666 719h45 q32 0 56 3.5t52.5 15t44 37.5t15.5 65q0 35 -12 59.5t-28 37t-42 19.5t-44.5 8t-45.5 1h-41v-246z" />
<glyph unicode="&#xb0;" horiz-adv-x="1009" d="M221 1087q0 121 80.5 202t202.5 81q121 0 201.5 -80.5t80.5 -202.5q0 -121 -80 -201.5t-202 -80.5t-202.5 80.5t-80.5 201.5zM324 1087q0 -88 56 -138t124 -50t124 50t56 138t-56 138.5t-124 50.5t-124 -50.5t-56 -138.5z" />
<glyph unicode="&#xb1;" horiz-adv-x="1024" d="M68 137v135h888v-135h-888zM68 707v135h370v350h148v-350h370v-135h-370v-351h-148v351h-370z" />
<glyph unicode="&#xb6;" horiz-adv-x="1187" d="M45 999q0 65 19 125.5t71 118.5t131 88q93 35 230 35h548v-119h-122v-1450h-127v1450h-217v-1450h-127v846h-31q-163 0 -269 100.5t-106 255.5z" />
<glyph unicode="&#xb7;" horiz-adv-x="409" d="M74 696q0 52 39 91.5t92 39.5t92 -39.5t39 -91.5t-39 -91.5t-92 -39.5t-92 39.5t-39 91.5z" />
<glyph unicode="&#xbb;" horiz-adv-x="880" d="M102 137l246 309l-246 299l95 74l307 -373l-307 -385zM406 137l245 309l-245 299l94 74l307 -373l-307 -385z" />
<glyph unicode="&#x3bc;" horiz-adv-x="1071" d="M139 -348v1198h148v-424q0 -163 61 -242q60 -78 180 -78q68 0 122 35t85 86q49 80 49 217v406h148v-850h-148v176q-33 -90 -100 -145.5t-160 -55.5q-44 0 -83 13.5t-63.5 30.5t-45.5 41t-30 38t-15 27v-473h-148z" />
<glyph unicode="&#x401;" horiz-adv-x="987" d="M176 0v1366h709v-143h-557v-406h540v-143h-540v-531h557v-143h-709zM229 1606q0 43 31 73.5t74 30.5t73.5 -30.5t30.5 -73.5t-30.5 -74t-73.5 -31t-74 31t-31 74zM618 1606q0 43 31 73.5t74 30.5t73.5 -30.5t30.5 -73.5t-30.5 -74t-73.5 -31t-74 31t-31 74z" />
<glyph unicode="&#x402;" horiz-adv-x="1388" d="M29 1223v143h893v-143h-414v-402q185 15 283 15q187 0 307 -66q205 -112 205 -381q0 -188 -113.5 -301t-292.5 -113q-141 0 -262 64l49 141q107 -61 215 -61q113 0 180.5 71.5t67.5 192.5q0 189 -146 266q-86 43 -227 43q-119 0 -266 -14v-678h-152v1223h-327z" />
<glyph unicode="&#x403;" horiz-adv-x="827" d="M176 0v1366h623v-143h-471v-1223h-152zM401 1540l258 266l144 -92l-314 -239z" />
<glyph unicode="&#x404;" horiz-adv-x="1320" d="M102 678q0 152 47.5 283t133 225.5t212.5 148.5t279 54q248 0 445 -136v-188q-76 76 -179 123q-129 57 -276 57q-206 0 -345.5 -134.5t-154.5 -332.5h791v-143h-797q-1 -150 71 -269.5t187.5 -183t249.5 -63.5q155 0 295 67q98 48 158 111v-188q-207 -134 -453 -134 q-151 0 -277 54t-210 148t-130.5 223t-46.5 278z" />
<glyph unicode="&#x405;" horiz-adv-x="1060" d="M102 328l148 41q14 -103 82 -174q76 -76 196 -76q132 0 203.5 79.5t71.5 190.5q0 98 -68 160q-18 17 -46 34.5t-49.5 28t-68.5 31.5l-122 57q-3 1 -20 9t-23 11l-22 11t-24 13t-22.5 14t-25 16.5t-23 17.5t-23.5 21q-47 45 -70.5 97.5t-23.5 125.5q0 157 108 255t275 98 q125 0 219 -62q83 -56 133 -151l-121 -80q-31 63 -79 102q-63 47 -154 47q-102 0 -165.5 -58t-63.5 -153q0 -39 11.5 -66t39.5 -53q19 -19 46.5 -36.5t43.5 -25t53 -24.5l131 -57q146 -64 211 -129q98 -98 98 -248q0 -187 -122.5 -303.5t-309.5 -116.5q-184 0 -297 111 q-94 91 -127 242z" />
<glyph unicode="&#x406;" horiz-adv-x="503" d="M176 0v1366h152v-1366h-152z" />
<glyph unicode="&#x407;" horiz-adv-x="503" d="M0 1606q0 43 30.5 73.5t73.5 30.5t74 -30.5t31 -73.5t-31 -74t-74 -31t-73.5 31t-30.5 74zM176 0v1366h152v-1366h-152zM295 1606q0 43 30.5 73.5t73.5 30.5t74 -30.5t31 -73.5t-31 -74t-74 -31t-73.5 31t-30.5 74z" />
<glyph unicode="&#x408;" horiz-adv-x="626" d="M-94 -41l84 119q41 -38 76.5 -57t80.5 -19q76 0 111 51q41 50 41 209v1104h152v-1104q0 -129 -26 -214.5t-108 -139.5q-74 -49 -167 -49q-130 0 -244 100z" />
<glyph unicode="&#x409;" horiz-adv-x="1888" d="M29 0v143q40 -12 75 -12q81 0 134 53q19 19 33 43t22.5 59t13 57.5t6.5 70.5t2 65v72v815h832v-567h184q42 0 79.5 -3t87 -12.5t90 -25.5t81.5 -45.5t69.5 -69t46 -98.5t17.5 -131q0 -193 -119.5 -303.5t-322.5 -110.5h-365v1223h-528v-734v-16q0 -64 -2 -102 t-12.5 -99.5t-37.5 -111.5t-71 -90q-91 -82 -233 -82q-33 0 -82 12zM1147 143h176q34 0 56.5 1.5t61 7.5t73 23t61.5 44q72 68 72 195q0 147 -111 207q-29 16 -72 24t-71 9t-86 1h-160v-512z" />
<glyph unicode="&#x40a;" horiz-adv-x="1921" d="M176 0v1366h152v-567h700v567h152v-567h184q42 0 79.5 -3t87 -12.5t90 -25.5t81.5 -45.5t69.5 -69t46 -98.5t17.5 -131q0 -193 -119.5 -303.5t-322.5 -110.5h-365v655h-700v-655h-152zM1180 143h176q34 0 56.5 1.5t61 7.5t73 23t61.5 44q71 67 71 195q0 147 -110 207 q-29 16 -72.5 24t-71 9t-86.5 1h-159v-512z" />
<glyph unicode="&#x40b;" horiz-adv-x="1388" d="M29 1223v143h893v-143h-414v-402q205 15 283 15q241 0 337 -74q41 -31 68 -72t38 -87t15 -81t4 -78v-444h-151v424q0 30 -1.5 51t-8.5 57t-25 66t-47 51q-34 26 -91 34.5t-147 8.5q-120 0 -274 -14v-678h-152v1223h-327z" />
<glyph unicode="&#x40c;" d="M176 0v1366h152v-586l581 586h205l-639 -637l660 -729h-209l-559 627l-39 -39v-588h-152zM492 1540l258 266l143 -92l-313 -239z" />
<glyph unicode="&#x40e;" d="M16 1366h185l426 -805l356 805h164l-617 -1366h-163l174 381zM276 1675l144 47q9 -32 29.5 -55t41 -34t45.5 -17t36.5 -7t21.5 -1t21.5 1t36.5 7t45.5 17t41 34t29.5 55l143 -47q-5 -16 -15 -34.5t-35 -49.5t-58 -55t-88 -41.5t-121 -17.5t-121.5 17.5t-88 41.5t-58 55 t-35.5 49.5t-15 34.5z" />
<glyph unicode="&#x40f;" horiz-adv-x="1347" d="M176 0v1366h152v-1223h692v1223h151v-1366h-426v-328h-143v328h-426z" />
<glyph unicode="&#x410;" horiz-adv-x="1273" d="M16 0l629 1432l612 -1432h-167l-160 385h-582l-164 -385h-168zM408 528h462l-229 547z" />
<glyph unicode="&#x411;" horiz-adv-x="1085" d="M176 0v1366h678v-143h-526v-424h184q42 0 79.5 -3t87 -12.5t90 -25.5t81.5 -45.5t69.5 -69t46 -98.5t17.5 -131q0 -193 -119.5 -303.5t-322.5 -110.5h-365zM328 143h176q34 0 56.5 1.5t61 7.5t73 23t61.5 44q71 67 71 195q0 147 -110 207q-29 16 -72.5 24t-71 9t-86.5 1 h-159v-512z" />
<glyph unicode="&#x412;" horiz-adv-x="1085" d="M176 0v1366h246q206 0 313 -86q47 -36 85 -105t38 -178q0 -177 -135 -268q68 -17 120 -54.5t81.5 -86.5t44 -100t14.5 -103q0 -93 -39.5 -171t-99.5 -124q-39 -31 -82 -50.5t-89.5 -27t-79 -10t-77.5 -2.5h-340zM328 143h174q79 0 136.5 11.5t102.5 46.5q41 30 65.5 79 t24.5 109q0 74 -34 124.5t-82 76.5q-72 41 -232 41h-155v-488zM328 766h114q31 0 59.5 3t69 16.5t69.5 36t50 67t21 104.5q0 46 -13 83.5t-32 61t-46.5 40.5t-51 25.5t-51.5 13t-42.5 5.5t-28.5 1h-118v-457z" />
<glyph unicode="&#x413;" horiz-adv-x="827" d="M176 0v1366h623v-143h-471v-1223h-152z" />
<glyph unicode="&#x414;" horiz-adv-x="1310" d="M29 143q70 -3 127 50t90 135q49 123 49 358v680h831v-1223h156v-430h-143v287h-967v-287h-143v430zM293 143h682v1080h-529v-537q0 -253 -49 -381q-35 -93 -104 -162z" />
<glyph unicode="&#x415;" horiz-adv-x="987" d="M176 0v1366h709v-143h-557v-406h540v-143h-540v-531h557v-143h-709z" />
<glyph unicode="&#x416;" horiz-adv-x="1658" d="M29 0l589 729l-573 637h188l521 -586v586h151v-586l520 586h189l-574 -637l590 -729h-192l-500 625l-33 -37v-588h-151v588l-33 37l-500 -625h-192z" />
<glyph unicode="&#x417;" horiz-adv-x="1179" d="M102 303l148 66q41 -116 135 -183t217 -67q126 0 209 57q111 77 111 219q0 60 -17 106.5t-48.5 74.5t-66 47t-80 27t-79.5 11t-74 3h-123v143h123q136 0 207.5 65.5t71.5 165.5q0 88 -56 144q-61 63 -184 63q-82 0 -149.5 -32t-124.5 -115l-117 92q135 199 391 199 q183 0 289 -97q106 -95 106 -252q0 -100 -52 -174.5t-136 -113.5q132 -30 203 -126.5t71 -226.5q0 -214 -170 -333q-133 -91 -311 -91q-97 0 -180 28t-143 76.5t-101.5 104t-69.5 119.5z" />
<glyph unicode="&#x418;" horiz-adv-x="1454" d="M176 -61v1427h152v-1047l950 1104v-1423h-152v1042z" />
<glyph unicode="&#x419;" horiz-adv-x="1454" d="M176 -61v1427h152v-1047l950 1104v-1423h-152v1042zM410 1675l143 47q9 -32 29.5 -55t41 -34t45.5 -17t36.5 -7t21.5 -1t21.5 1t36.5 7t45.5 17t41 34t29.5 55l143 -47q-5 -16 -15 -34.5t-35 -49.5t-58 -55t-88 -41.5t-121 -17.5t-121 17.5t-88 41.5t-58 55t-35 49.5 t-15 34.5z" />
<glyph unicode="&#x41a;" d="M176 0v1366h152v-586l581 586h205l-639 -637l660 -729h-209l-559 627l-39 -39v-588h-152z" />
<glyph unicode="&#x41b;" horiz-adv-x="1323" d="M29 0v143q40 -12 75 -12q81 0 134 53q19 19 33 43t22.5 59t13 57.5t6.5 70.5t2 65v72v815h832v-1366h-152v1223h-528v-734v-16q0 -64 -2 -102t-12.5 -99.5t-37.5 -111.5t-71 -90q-91 -82 -233 -82q-33 0 -82 12z" />
<glyph unicode="&#x41c;" horiz-adv-x="1767" d="M129 0l227 1442l525 -1153l534 1155l213 -1444h-155l-130 950l-464 -1007l-459 1007l-135 -950h-156z" />
<glyph unicode="&#x41d;" horiz-adv-x="1355" d="M176 0v1366h152v-555h700v555h152v-1366h-152v668h-700v-668h-152z" />
<glyph unicode="&#x41e;" horiz-adv-x="1626" d="M102 682q0 150 56 282t151.5 225t226.5 146.5t277 53.5t277 -53.5t226.5 -146.5t151.5 -225t56 -282q0 -149 -56 -281t-151 -225t-226.5 -147t-277.5 -54t-277.5 54t-226.5 147t-151 225t-56 281zM258 682q0 -154 74 -283.5t202 -204.5t279 -75t279 75t202 204.5 t74 283.5t-74 283.5t-202 204.5t-279 75t-279 -75t-202 -204.5t-74 -283.5z" />
<glyph unicode="&#x41f;" horiz-adv-x="1355" d="M176 0v1366h1004v-1366h-152v1223h-700v-1223h-152z" />
<glyph unicode="&#x420;" horiz-adv-x="933" d="M176 0v1366h248q115 0 197.5 -20t146.5 -76q125 -108 125 -293q0 -60 -14.5 -114t-48 -104t-82.5 -86t-123 -57.5t-164 -21.5h-133v-594h-152zM328 737h125q136 0 212 65t76 183q0 62 -22.5 108t-54.5 70t-76.5 38.5t-78 18t-69.5 3.5h-112v-486z" />
<glyph unicode="&#x421;" horiz-adv-x="1323" d="M102 678q0 151 54.5 283t149 226t227.5 148t284 54q226 0 404 -136v-188q-81 81 -179 127q-116 53 -235 53q-154 0 -280.5 -76t-197.5 -206.5t-71 -286.5q0 -107 33.5 -199.5t88.5 -157t127 -110.5t149 -68t153 -22q131 0 254 63q86 43 158 115v-188q-187 -134 -412 -134 q-200 0 -362 93t-253.5 254t-91.5 356z" />
<glyph unicode="&#x422;" horiz-adv-x="872" d="M29 1223v143h815v-143h-332v-1223h-152v1223h-331z" />
<glyph unicode="&#x423;" d="M16 1366h185l426 -805l356 805h164l-617 -1366h-163l174 381z" />
<glyph unicode="&#x424;" horiz-adv-x="1683" d="M102 725q0 50 8 99t28 103t50.5 100.5t80.5 89.5t113.5 73.5t152 48.5t194.5 18h37v164h152v-164h36q106 0 194.5 -18t152 -48.5t113.5 -73.5t80.5 -89.5t50.5 -100.5t28 -103t8 -99t-8 -99t-28 -103t-50.5 -100.5t-80.5 -89.5t-113.5 -73.5t-152 -48.5t-194.5 -18h-36 v-193h-152v193h-37q-106 0 -194.5 18t-152 48.5t-113.5 73.5t-80.5 89.5t-50.5 100.5t-28 103t-8 99zM258 725q0 -56 12.5 -107.5t45 -104t83.5 -91t134.5 -62.5t191.5 -24h41v778h-41q-108 0 -191.5 -24t-134.5 -62.5t-83.5 -91t-45 -104t-12.5 -107.5zM918 336h40 q108 0 191.5 24t134.5 62.5t83.5 91t45 104t12.5 107.5t-12.5 107.5t-45 104t-83.5 91t-134.5 62.5t-191.5 24h-40v-778z" />
<glyph unicode="&#x425;" horiz-adv-x="1032" d="M29 0l403 707l-366 659h172l282 -514l291 514h172l-375 -659l396 -707h-173l-313 561l-317 -561h-172z" />
<glyph unicode="&#x426;" horiz-adv-x="1355" d="M176 0v1366h152v-1223h692v1223h151v-1223h156v-430h-143v287h-1008z" />
<glyph unicode="&#x427;" horiz-adv-x="1208" d="M135 963v403h152v-383q0 -30 1.5 -51t8.5 -57t25 -66t47 -51q34 -26 90.5 -34.5t146.5 -8.5q121 0 275 14v637h151v-1366h-151v586q-205 -15 -283 -15q-242 0 -338 74q-41 31 -68 72t-38 87t-15 81t-4 78z" />
<glyph unicode="&#x428;" horiz-adv-x="1888" d="M176 0v1366h152v-1223h540v1223h152v-1223h541v1223h151v-1366h-1536z" />
<glyph unicode="&#x429;" horiz-adv-x="1896" d="M176 0v1366h152v-1223h540v1223h152v-1223h541v1223h151v-1223h156v-430h-144v287h-1548z" />
<glyph unicode="&#x42a;" horiz-adv-x="1249" d="M29 1223v143h479v-567h184q42 0 79.5 -3t87 -12.5t90 -25.5t81.5 -45.5t69.5 -69t46 -98.5t17.5 -131q0 -193 -119.5 -303.5t-322.5 -110.5h-365v1223h-327zM508 143h176q34 0 56.5 1.5t61 7.5t73 23t61.5 44q72 68 72 195q0 147 -111 207q-29 16 -72 24t-71 9t-86 1 h-160v-512z" />
<glyph unicode="&#x42b;" horiz-adv-x="1454" d="M176 0v1366h152v-567h184q42 0 79.5 -3t87 -12.5t90 -25.5t81.5 -45.5t69.5 -69t46 -98.5t17.5 -131q0 -193 -119.5 -303.5t-322.5 -110.5h-365zM328 143h176q34 0 56.5 1.5t61 7.5t73 23t61.5 44q71 67 71 195q0 147 -110 207q-29 16 -72.5 24t-71 9t-86.5 1h-159v-512z M1126 0v1366h152v-1366h-152z" />
<glyph unicode="&#x42c;" horiz-adv-x="1069" d="M176 0v1366h152v-567h184q42 0 79.5 -3t87 -12.5t90 -25.5t81.5 -45.5t69.5 -69t46 -98.5t17.5 -131q0 -193 -119.5 -303.5t-322.5 -110.5h-365zM328 143h176q34 0 56.5 1.5t61 7.5t73 23t61.5 44q71 67 71 195q0 147 -110 207q-29 16 -72.5 24t-71 9t-86.5 1h-159v-512z " />
<glyph unicode="&#x42d;" horiz-adv-x="1320" d="M102 109v188q60 -63 158 -111q140 -67 295 -67q134 0 249.5 63.5t187.5 183t71 269.5h-797v143h791q-15 198 -154.5 332.5t-345.5 134.5q-147 0 -276 -57q-103 -47 -179 -123v188q197 136 445 136q152 0 279 -54t212.5 -148.5t133 -225.5t47.5 -283q0 -149 -46.5 -278 t-130.5 -223t-210 -148t-277 -54q-246 0 -453 134z" />
<glyph unicode="&#x42e;" horiz-adv-x="2027" d="M176 0v1366h152v-569h209q24 168 117.5 302t243 212t329.5 78q149 0 278 -52.5t221.5 -145t145.5 -224.5t53 -285q0 -200 -90.5 -362t-250 -253.5t-357.5 -91.5q-149 0 -278.5 55t-218.5 148t-142 216.5t-58 258.5h-202v-653h-152zM686 682q0 -158 72 -287.5t196 -202.5 t273 -73t273 73t196.5 202.5t72.5 287.5t-72.5 287.5t-196.5 202.5t-273 73t-273 -73t-196 -202.5t-72 -287.5z" />
<glyph unicode="&#x42f;" horiz-adv-x="1044" d="M61 0l402 606q-139 14 -230 86q-118 96 -118 279q0 168 94 272q37 42 84 69t97.5 37.5t83.5 13.5t75 3h319v-1366h-151v598h-82l-389 -598h-185zM270 975q0 -121 78 -184q73 -58 209 -58h160v490h-148q-47 0 -79.5 -3t-77.5 -20t-76 -49q-66 -70 -66 -176z" />
<glyph unicode="&#x430;" horiz-adv-x="1077" d="M86 426q0 106 34 192t92 140.5t131.5 83t156.5 28.5q183 0 291 -141v121h147v-850h-147v119q-112 -144 -291 -144q-82 0 -155.5 29t-132 83.5t-92.5 142t-34 196.5zM238 426q0 -140 74.5 -230t203.5 -90q130 0 206.5 93t76.5 225q0 79 -25.5 141t-67 99t-90.5 56t-100 19 q-116 0 -197 -82.5t-81 -230.5z" />
<glyph unicode="&#x431;" horiz-adv-x="1073" d="M86 520q0 535 242 701q22 15 48.5 28t46 21.5t53 18t48 13t53.5 12.5t48 11q81 19 118 45t52 64h163q-17 -58 -49.5 -101t-76 -68.5t-76.5 -38.5t-76 -24q-5 -1 -48.5 -11.5t-60 -15.5t-51.5 -16t-61 -24.5t-49 -30.5q-79 -59 -126.5 -165t-52.5 -224h5q91 155 309 155 q190 0 316 -128.5t126 -319.5q0 -193 -129 -320t-336 -127q-178 0 -293 107q-46 43 -76.5 96t-44 113.5t-18 111.5t-4.5 117zM238 422q0 -100 43.5 -173.5t110.5 -108t145 -34.5q123 0 211 84t88 232q0 149 -87 233t-212 84q-124 0 -211.5 -84.5t-87.5 -232.5z" />
<glyph unicode="&#x432;" horiz-adv-x="880" d="M139 0v850h322q116 0 178 -49q74 -60 74 -160q0 -110 -92 -170q62 -15 106 -57q68 -65 68 -164q0 -124 -88 -193q-75 -57 -201 -57h-367zM287 131h182q93 0 133 29q49 36 49 94q0 62 -43 96q-40 31 -133 31h-188v-250zM287 504h155q61 0 95 24q41 31 41 88q0 53 -41 82 q-5 3 -11 6t-10.5 5t-11.5 3.5t-11 2.5t-12 2t-11.5 1.5t-13 0.5h-12h-13.5h-13h-131v-215z" />
<glyph unicode="&#x433;" horiz-adv-x="651" d="M139 0v850h504v-135h-356v-715h-148z" />
<glyph unicode="&#x434;" horiz-adv-x="942" d="M8 135q53 1 94 32t64 79q35 71 35 225v379h598v-715h127v-360h-135v225h-648v-225h-135v360zM246 135h405v580h-303v-320q0 -171 -102 -260z" />
<glyph unicode="&#x435;" horiz-adv-x="985" d="M86 420q0 195 112 322.5t300 127.5q114 0 195 -45t126 -110q39 -56 61 -145t19 -175h-661q1 -129 79 -209t191 -80q100 0 174 62q58 49 88 117l123 -68q-43 -81 -105 -137q-117 -105 -282 -105q-80 0 -152.5 26t-133.5 77.5t-97.5 140t-36.5 201.5zM248 518h500 q-19 100 -87.5 160.5t-162.5 60.5q-93 0 -163 -62.5t-87 -158.5z" />
<glyph unicode="&#x436;" horiz-adv-x="1220" d="M8 0l406 457l-369 393h172l320 -348v348h147v-348l320 348h172l-369 -393l405 -457h-184l-315 358l-29 -28v-330h-147v330l-29 28l-315 -358h-185z" />
<glyph unicode="&#x437;" horiz-adv-x="864" d="M86 193l127 53q22 -56 76 -96q59 -44 139 -44q95 0 143 33q25 15 42.5 46t17.5 73q0 66 -51 98q-43 29 -140 29h-86v135h72q76 0 111 23q45 27 45 78q0 59 -37 88q-34 30 -109 30q-66 0 -117 -32q-43 -26 -69 -74l-103 84q49 70 109 106q80 47 186 47q62 0 110 -11.5 t91 -47.5q74 -63 74 -162q0 -118 -96 -178q63 -15 98 -55q59 -62 59 -156q0 -66 -29 -123.5t-81 -95.5q-89 -66 -242 -66q-133 0 -227 72q-69 52 -113 146z" />
<glyph unicode="&#x438;" horiz-adv-x="1007" d="M139 -59v909h148v-561l581 626v-915h-147v567z" />
<glyph unicode="&#x439;" horiz-adv-x="1007" d="M139 -59v909h148v-561l581 626v-915h-147v567zM213 1217l123 47q16 -55 60.5 -89t113.5 -34t113.5 34t60.5 89l123 -47q-33 -92 -112 -145.5t-185 -53.5t-185 53.5t-112 145.5z" />
<glyph unicode="&#x43a;" horiz-adv-x="864" d="M139 0v850h148v-348l344 348h180l-369 -379l414 -471h-192l-332 373l-45 -43v-330h-148z" />
<glyph unicode="&#x43b;" horiz-adv-x="921" d="M16 0v135q20 -4 33 -4q74 0 107 55q28 43 28 146v518h598v-850h-147v715h-303v-383q0 -50 -2 -80.5t-17.5 -79.5t-46.5 -86q-74 -90 -205 -90q-17 0 -45 4z" />
<glyph unicode="&#x43c;" horiz-adv-x="1187" d="M41 0l205 915l352 -692l344 692l205 -915h-152l-112 526l-289 -585l-293 585l-108 -526h-152z" />
<glyph unicode="&#x43d;" horiz-adv-x="974" d="M139 0v850h148v-348h401v348h148v-850h-148v367h-401v-367h-148z" />
<glyph unicode="&#x43e;" horiz-adv-x="1073" d="M86 422q0 194 128 321t323 127t322.5 -127t127.5 -321q0 -193 -128 -320t-322 -127t-322.5 127t-128.5 320zM238 422q0 -100 43.5 -173.5t110.5 -108t145 -34.5q123 0 211 84t88 232q0 149 -87 233t-212 84q-124 0 -211.5 -84.5t-87.5 -232.5z" />
<glyph unicode="&#x43f;" horiz-adv-x="962" d="M139 0v850h684v-850h-147v715h-389v-715h-148z" />
<glyph unicode="&#x440;" horiz-adv-x="1077" d="M139 -479v1329h148v-119q111 139 291 139q128 0 224 -65.5t142.5 -166.5t46.5 -218q0 -118 -47 -218.5t-141.5 -163.5t-218.5 -63q-186 0 -297 144v-598h-148zM279 422q0 -134 78.5 -225t205.5 -91q125 0 201 91t76 223q0 148 -84 233.5t-195 85.5t-196.5 -86t-85.5 -231 z" />
<glyph unicode="&#x441;" horiz-adv-x="897" d="M86 420q0 195 129 322.5t326 127.5q148 0 264 -82v-176q-53 67 -126 97t-140 30q-126 0 -213.5 -84.5t-87.5 -232.5q0 -147 88.5 -231.5t210.5 -84.5q71 0 145 33.5t129 100.5v-177q-119 -88 -270 -88q-198 0 -326.5 126.5t-128.5 318.5z" />
<glyph unicode="&#x442;" horiz-adv-x="712" d="M16 715v135h680v-135h-266v-715h-147v715h-267z" />
<glyph unicode="&#x443;" horiz-adv-x="942" d="M16 850h168l301 -608l277 608h164l-629 -1329h-164l275 559z" />
<glyph unicode="&#x444;" horiz-adv-x="1331" d="M86 426q0 208 145 328q130 110 361 110v502h147v-502q231 0 361 -110q145 -120 145 -328q0 -210 -147 -330q-136 -110 -359 -110v-465h-147v465q-223 0 -359 110q-147 120 -147 330zM238 426q0 -165 118 -248q46 -33 110 -48.5t126 -12.5v616q-61 3 -123 -11.5 t-104 -41.5q-52 -33 -89.5 -95.5t-37.5 -158.5zM739 117q62 -3 126 12.5t110 48.5q119 84 119 248q0 96 -37.5 158.5t-89.5 95.5q-42 27 -104.5 41.5t-123.5 11.5v-616z" />
<glyph unicode="&#x445;" horiz-adv-x="929" d="M16 0l363 455l-309 395h180l219 -289l223 289h180l-311 -397l352 -453h-180l-268 346l-268 -346h-181z" />
<glyph unicode="&#x446;" horiz-adv-x="970" d="M139 0v850h148v-715h381v715h147v-715h139v-360h-135v225h-680z" />
<glyph unicode="&#x447;" horiz-adv-x="880" d="M115 586v264h147v-244q0 -66 19 -100q29 -55 129 -55q90 0 184 18v381h147v-850h-147v334q-126 -19 -201 -19q-138 0 -207 62q-71 64 -71 209z" />
<glyph unicode="&#x448;" horiz-adv-x="1376" d="M139 0v850h148v-715h327v715h148v-715h328v715h147v-850h-1098z" />
<glyph unicode="&#x449;" horiz-adv-x="1392" d="M139 0v850h148v-715h327v715h148v-715h328v715h147v-715h139v-360h-135v225h-1102z" />
<glyph unicode="&#x44a;" horiz-adv-x="880" d="M16 715v135h332v-326h152q77 0 142 -16t116 -68q65 -65 65 -178q0 -119 -75 -190q-34 -33 -81 -49.5t-80.5 -19.5t-88.5 -3h-297v715h-185zM348 131h137q91 0 131 23q56 37 56 108q0 73 -54 107q-17 12 -42 17.5t-40 6t-49 0.5h-139v-262z" />
<glyph unicode="&#x44b;" horiz-adv-x="1150" d="M139 0v850h148v-326h151q77 0 142 -16t116 -68q66 -66 66 -178q0 -118 -76 -190q-34 -33 -81 -49.5t-80.5 -19.5t-88.5 -3h-297zM287 131h137q91 0 131 23q55 37 55 108q0 74 -53 107q-17 12 -42 17.5t-40 6t-49 0.5h-139v-262zM864 0v850h148v-850h-148z" />
<glyph unicode="&#x44c;" horiz-adv-x="819" d="M139 0v850h148v-326h151q77 0 142 -16t116 -68q66 -66 66 -178q0 -118 -76 -190q-34 -33 -81 -49.5t-80.5 -19.5t-88.5 -3h-297zM287 131h137q91 0 131 23q55 37 55 108q0 74 -53 107q-17 12 -42 17.5t-40 6t-49 0.5h-139v-262z" />
<glyph unicode="&#x44d;" horiz-adv-x="866" d="M86 23v143q114 -60 240 -60q118 0 204.5 72.5t98.5 190.5h-449v131h449q-24 114 -108 176.5t-197 62.5q-119 0 -238 -55v143q106 43 231 43q216 0 339.5 -124.5t123.5 -325.5q0 -194 -125.5 -319.5t-326.5 -125.5q-122 0 -242 48z" />
<glyph unicode="&#x44e;" horiz-adv-x="1413" d="M139 0v850h148v-348h153q19 142 115 241q57 60 140 93.5t182 33.5q196 0 323 -127t127 -321t-127.5 -320.5t-322.5 -126.5q-225 0 -351 160q-81 101 -94 232h-145v-367h-148zM584 422q0 -149 86 -232.5t207 -83.5q123 0 211 84t88 232t-87.5 232.5t-211.5 84.5 t-208.5 -85t-84.5 -232z" />
<glyph unicode="&#x44f;" horiz-adv-x="835" d="M41 0l264 350q-11 0 -33.5 4t-63 21t-67.5 43q-67 63 -67 170q0 120 76 190q35 33 81.5 49.5t79.5 19.5t88 3h297v-850h-147v342h-90l-242 -342h-176zM225 592q0 -69 54 -103q8 -5 17 -9t16.5 -6.5t18 -4t16.5 -2.5t18 -1.5t15.5 -0.5h16h13.5h139v254h-137 q-93 0 -133 -23q-54 -35 -54 -104z" />
<glyph unicode="&#x451;" horiz-adv-x="987" d="M86 420q0 195 112.5 322.5t301.5 127.5q114 0 195 -45t126 -110q39 -56 61 -145t19 -175h-663q1 -129 79 -209t193 -80q103 0 174 62q58 49 88 117l123 -68q-44 -82 -104 -137q-115 -105 -283 -105q-63 0 -122.5 15.5t-114.5 50.5t-95.5 86t-65 126.5t-24.5 166.5z M225 1126q0 41 31 72t72 31t71.5 -31t30.5 -72t-30.5 -71.5t-71.5 -30.5t-72 30.5t-31 71.5zM250 518h500q-19 100 -87.5 160.5t-162.5 60.5q-93 0 -163 -62.5t-87 -158.5zM582 1126q0 41 30.5 72t71.5 31t71.5 -31t30.5 -72t-30.5 -71.5t-71.5 -30.5t-71.5 30.5t-30.5 71.5 z" />
<glyph unicode="&#x452;" horiz-adv-x="962" d="M0 1135v122h139v236h148v-236h409v-122h-409v-383q91 118 243 118q77 0 141.5 -30t102.5 -86q30 -44 39.5 -96t9.5 -132v-710q0 -77 -15.5 -137.5t-66.5 -102.5q-64 -55 -170 -55q-56 0 -104 18v144q49 -19 96 -19q66 0 94 45q19 33 19 123v690q0 106 -39 156 q-48 61 -139 61q-95 0 -150 -65q-61 -73 -61 -230v-444h-148v1135h-139z" />
<glyph unicode="&#x453;" horiz-adv-x="651" d="M139 0v850h504v-135h-356v-715h-148zM301 1067l215 297l152 -70l-275 -276z" />
<glyph unicode="&#x454;" horiz-adv-x="897" d="M86 420q0 195 129 322.5t326 127.5q148 0 264 -82v-176q-55 65 -126 96t-140 31q-105 0 -189.5 -64t-105.5 -175h444v-131h-446q13 -117 98 -190t197 -73q71 0 145 33.5t129 100.5v-177q-119 -88 -270 -88q-198 0 -326.5 126.5t-128.5 318.5z" />
<glyph unicode="&#x455;" horiz-adv-x="720" d="M74 193l127 53q7 -21 19 -41.5t32.5 -44.5t52 -39t68.5 -15q67 0 103 41.5t36 94.5q0 29 -9 50t-31 38t-40.5 26.5t-56.5 26.5q-86 38 -133 65t-74 60q-39 48 -39 125q0 110 69 173.5t179 63.5q161 0 233 -153l-121 -64q-16 38 -47 62t-71 24q-43 0 -73 -24.5t-30 -71.5 q0 -42 28 -64t110 -57q160 -66 212 -131q46 -56 46 -137q0 -130 -83 -204.5t-210 -74.5q-18 0 -38 2t-60.5 14t-74 33t-69 65t-55.5 104z" />
<glyph unicode="&#x456;" horiz-adv-x="425" d="M109 1171q0 43 30.5 74t73.5 31t73.5 -31t30.5 -74t-30.5 -73.5t-73.5 -30.5t-73.5 30.5t-30.5 73.5zM139 0v850h148v-850h-148z" />
<glyph unicode="&#x457;" horiz-adv-x="425" d="M-25 1126q0 41 31 72t72 31t71.5 -31t30.5 -72t-30.5 -71.5t-71.5 -30.5t-72 30.5t-31 71.5zM139 0v850h148v-850h-148zM246 1126q0 41 30.5 72t71.5 31t72 -31t31 -72t-31 -71.5t-72 -30.5t-71.5 30.5t-30.5 71.5z" />
<glyph unicode="&#x458;" horiz-adv-x="425" d="M109 1171q0 43 30.5 74t73.5 31t73.5 -31t30.5 -74t-30.5 -73.5t-73.5 -30.5t-73.5 30.5t-30.5 73.5zM139 -479v1329h148v-1329h-148z" />
<glyph unicode="&#x459;" horiz-adv-x="1314" d="M16 0v135q20 -4 33 -4q74 0 107 55q28 43 28 146v518h598v-326h152q77 0 142 -16t116 -68q65 -65 65 -178q0 -119 -75 -190q-34 -33 -81 -49.5t-80.5 -19.5t-88.5 -3h-297v715h-303v-383q0 -50 -2 -80.5t-17.5 -79.5t-46.5 -86q-74 -90 -205 -90q-17 0 -45 4zM782 131 h138q91 0 131 23q55 37 55 108q0 74 -53 107q-17 12 -42 17.5t-40 6t-49 0.5h-140v-262z" />
<glyph unicode="&#x45a;" horiz-adv-x="1368" d="M139 0v850h148v-322h401v322h148v-326h151q77 0 142 -16t116 -68q66 -66 66 -178q0 -118 -76 -190q-34 -33 -81 -49.5t-80.5 -19.5t-88.5 -3h-297v393h-401v-393h-148zM836 131h137q91 0 131 23q55 37 55 108q0 74 -53 107q-17 12 -42 17.5t-40 6t-49 0.5h-139v-262z" />
<glyph unicode="&#x45b;" horiz-adv-x="962" d="M0 1135v122h139v236h148v-236h409v-122h-409v-383q91 118 243 118q77 0 141.5 -30t102.5 -86q30 -44 39.5 -96t9.5 -132v-526h-147v522q0 106 -39 156q-48 61 -139 61q-95 0 -150 -65q-61 -73 -61 -230v-444h-148v1135h-139z" />
<glyph unicode="&#x45c;" horiz-adv-x="864" d="M139 0v850h148v-348l344 348h180l-369 -379l414 -471h-192l-332 373l-45 -43v-330h-148zM344 1067l215 297l152 -70l-275 -276z" />
<glyph unicode="&#x45e;" horiz-adv-x="942" d="M16 850h168l301 -608l277 608h164l-629 -1329h-164l275 559zM195 1217l122 47q16 -55 61 -89t114 -34t113.5 34t60.5 89l122 -47q-33 -92 -111.5 -145.5t-184.5 -53.5t-185 53.5t-112 145.5z" />
<glyph unicode="&#x45f;" horiz-adv-x="954" d="M139 0v850h148v-715h381v715h147v-850h-270v-287h-135v287h-271z" />
<glyph unicode="&#x490;" horiz-adv-x="827" d="M176 0v1366h479v287h144v-430h-471v-1223h-152z" />
<glyph unicode="&#x491;" horiz-adv-x="671" d="M139 0v850h369v225h135v-360h-356v-715h-148z" />
<glyph unicode="&#x2000;" horiz-adv-x="903" />
<glyph unicode="&#x2001;" horiz-adv-x="1806" />
<glyph unicode="&#x2002;" horiz-adv-x="903" />
<glyph unicode="&#x2003;" horiz-adv-x="1806" />
<glyph unicode="&#x2004;" horiz-adv-x="602" />
<glyph unicode="&#x2005;" horiz-adv-x="451" />
<glyph unicode="&#x2006;" horiz-adv-x="301" />
<glyph unicode="&#x2007;" horiz-adv-x="301" />
<glyph unicode="&#x2008;" horiz-adv-x="225" />
<glyph unicode="&#x2009;" horiz-adv-x="361" />
<glyph unicode="&#x200a;" horiz-adv-x="100" />
<glyph unicode="&#x2010;" horiz-adv-x="614" d="M82 360v152h450v-152h-450z" />
<glyph unicode="&#x2011;" horiz-adv-x="614" d="M82 360v152h450v-152h-450z" />
<glyph unicode="&#x2012;" horiz-adv-x="614" d="M82 360v152h450v-152h-450z" />
<glyph unicode="&#x2013;" horiz-adv-x="1105" d="M102 371v131h902v-131h-902z" />
<glyph unicode="&#x2014;" horiz-adv-x="1556" d="M102 371v131h1352v-131h-1352z" />
<glyph unicode="&#x2018;" horiz-adv-x="540" d="M119 971l207 463l96 -39l-170 -473z" />
<glyph unicode="&#x2019;" horiz-adv-x="630" d="M119 961l166 473l137 -50l-207 -462z" />
<glyph unicode="&#x201a;" horiz-adv-x="630" d="M119 -272l166 473l137 -49l-207 -463z" />
<glyph unicode="&#x201c;" horiz-adv-x="839" d="M119 971l207 463l96 -39l-170 -473zM418 971l207 463l96 -39l-166 -473z" />
<glyph unicode="&#x201d;" horiz-adv-x="929" d="M119 961l166 473l137 -50l-207 -462zM418 961l170 473l133 -50l-207 -462z" />
<glyph unicode="&#x201e;" horiz-adv-x="929" d="M119 -272l166 473l137 -49l-207 -463zM418 -272l170 473l133 -49l-207 -463z" />
<glyph unicode="&#x2020;" d="M205 1018v139h303v336h147v-336h303v-139h-303v-1378h-147v1378h-303z" />
<glyph unicode="&#x2021;" d="M205 258v139h303v621h-303v139h303v336h147v-336h303v-139h-303v-621h303v-139h-303v-618h-147v618h-303z" />
<glyph unicode="&#x2022;" horiz-adv-x="1368" d="M397 696q0 118 84.5 202.5t202.5 84.5t202.5 -84.5t84.5 -202.5t-84 -202t-203 -84t-203 84t-84 202z" />
<glyph unicode="&#x2026;" horiz-adv-x="1527" d="M154 82q0 41 30.5 71.5t71.5 30.5t71.5 -30.5t30.5 -71.5t-30.5 -71.5t-71.5 -30.5t-71.5 30.5t-30.5 71.5zM662 82q0 41 30.5 71.5t71.5 30.5t71.5 -30.5t30.5 -71.5t-30.5 -71.5t-71.5 -30.5t-71.5 30.5t-30.5 71.5zM1169 82q0 41 31 71.5t72 30.5t71.5 -30.5 t30.5 -71.5t-30.5 -71.5t-71.5 -30.5t-72 30.5t-31 71.5z" />
<glyph unicode="&#x202f;" horiz-adv-x="361" />
<glyph unicode="&#x2030;" horiz-adv-x="2170" d="M68 1081q0 125 86 211t211 86t211 -86t86 -211t-86 -211t-211 -86t-211 86t-86 211zM190 1081q0 -76 51.5 -130t123.5 -54q74 0 124 54t50 130t-50 130.5t-124 54.5q-72 0 -123.5 -54.5t-51.5 -130.5zM289 20l796 1373l80 -45l-796 -1375zM793 283q0 125 86.5 211 t210.5 86t210 -86t86 -211t-86 -211t-210 -86t-210.5 86t-86.5 211zM915 283q0 -76 51.5 -130.5t123.5 -54.5q74 0 124 54.5t50 130.5t-50 130t-124 54q-72 0 -123.5 -54t-51.5 -130zM1509 283q0 125 86.5 211t210.5 86t210.5 -86t86.5 -211t-86.5 -211t-210.5 -86 t-210.5 86t-86.5 211zM1632 283q0 -77 51 -131t123 -54q74 0 124 54.5t50 130.5t-50 130t-124 54q-72 0 -123 -54t-51 -130z" />
<glyph unicode="&#x2039;" horiz-adv-x="577" d="M74 434l307 385l94 -76l-246 -309l246 -299l-94 -74z" />
<glyph unicode="&#x203a;" horiz-adv-x="577" d="M102 137l246 309l-246 299l95 74l307 -373l-307 -385z" />
<glyph unicode="&#x205f;" horiz-adv-x="451" />
<glyph unicode="&#x20ac;" d="M55 496l43 114h97q-5 45 -5 78q0 13 1.5 38.5t1.5 33.5h-138l43 114h107q17 113 55 204t100 162t157 110t216 39q110 0 200 -28.5t138 -68.5v-149q-116 112 -321 112q-90 0 -161.5 -29.5t-118.5 -82.5t-76 -120t-40 -149h627l-43 -114h-600q0 -8 -1 -33.5t-1 -38.5 q0 -16 1 -42.5t1 -35.5h543l-41 -114h-484q25 -185 126.5 -286t267.5 -101q192 0 321 112v-149q-43 -38 -133 -66.5t-205 -28.5q-221 0 -355.5 130t-170.5 389h-152z" />
<glyph unicode="&#x2116;" horiz-adv-x="2088" d="M176 0v1423l954 -1083v1026h152v-1427l-954 1083v-1022h-152zM1434 1069q0 125 86 211t211 86t211 -86t86 -211t-86 -211t-211 -86t-211 86t-86 211zM1475 465v143h512v-143h-512zM1556 1069q0 -76 51.5 -130t123.5 -54q74 0 124 54t50 130t-50 130t-124 54 q-72 0 -123.5 -54t-51.5 -130z" />
<glyph unicode="&#x2122;" horiz-adv-x="1478" d="M8 1272v94h471v-94h-184v-684h-102v684h-185zM553 588l133 827l293 -645l301 645l125 -827h-94l-72 526l-260 -565l-256 565l-76 -526h-94z" />
<glyph unicode="&#xe000;" horiz-adv-x="849" d="M0 0v850h850v-850h-850z" />
</font>
</defs>
</svg>
